<svg width="24" height="24" viewBox="0 0 24 24" fill="none" xmlns="http://www.w3.org/2000/svg">
<path d="M4.27479 11.0607C3.62413 10.9728 3.19854 10.3336 3.36847 9.69936C3.52708 9.10743 4.16941 8.78931 4.73636 9.0219L12.3731 12.1549L4.27479 11.0607Z" fill="#FCD043"/>
<path d="M13.4661 4.05678C13.554 3.40611 14.1933 2.98052 14.8275 3.15046C15.4194 3.30906 15.7375 3.95139 15.505 4.51834L12.372 12.1551L13.4661 4.05678Z" fill="#FCD043"/>
<path d="M7.45041 5.63792C7.05248 5.11567 7.20359 4.36269 7.7722 4.0344C8.30291 3.72799 8.98205 3.95725 9.21848 4.52261L12.4031 12.1379L7.45041 5.63792Z" fill="#FCD043"/>
<path d="M18.9058 7.18381C19.428 6.78588 20.181 6.93698 20.5093 7.5056C20.8157 8.0363 20.5865 8.71544 20.0211 8.95187L12.4058 12.1365L18.9058 7.18381Z" fill="#FCD043"/>
<path d="M20.4691 13.2503C21.1198 13.3382 21.5454 13.9775 21.3754 14.6117C21.2168 15.2036 20.5745 15.5217 20.0075 15.2891L12.3708 12.1562L20.4691 13.2503Z" fill="#FCD043"/>
<path d="M11.2749 20.2547C11.187 20.9054 10.5477 21.331 9.91347 21.1611C9.32154 21.0025 9.00342 20.3601 9.23601 19.7932L12.369 12.1564L11.2749 20.2547Z" fill="#FCD043"/>
<path d="M17.3584 18.638C17.7564 19.1602 17.6053 19.9132 17.0366 20.2415C16.5059 20.5479 15.8268 20.3186 15.5904 19.7533L12.4057 12.1379L17.3584 18.638Z" fill="#FCD043"/>
<path d="M5.90476 17.0882C5.38251 17.4861 4.62953 17.335 4.30124 16.7664C3.99484 16.2357 4.2241 15.5565 4.78946 15.3201L12.4048 12.1354L5.90476 17.0882Z" fill="#FCD043"/>
</svg>
