<svg width="150" height="150" fill="none" xmlns="http://www.w3.org/2000/svg"><path opacity=".32" d="M31.225 14.75 75 .525l43.775 14.223 27.054 37.237v46.028l-27.054 37.237L75 149.474l-43.775-14.223L4.171 98.014V51.986L31.225 14.75Z" stroke="#FFFCF6"/><path d="M84 102.75s-2.625.75-4.875 3-4.125 6-4.125 6-1.875-3.75-4.125-6-4.875-3-4.875-3" stroke="#FCD043" stroke-width="2"/><path d="M55.054 40.374h2.758c.994 0 1.96.266 1.96 1.512 0 .714-.364 1.974-2.464 1.974h-2.996l.742-3.486Zm-3.206 8.876h1.33l.896-4.27h2.954c.574 0 1.918-.252 1.498 2.128-.196 1.022-.154 1.778-.028 2.142h1.386c-.406-.798-.07-1.652-.014-2.562.098-1.008-.154-1.904-1.022-2.17v-.028c1.33-.196 2.254-1.358 2.254-2.688 0-1.974-1.596-2.548-3.29-2.548h-3.85l-2.114 9.996Zm10.914-2.87c0-1.498.952-3.486 2.772-3.486 1.302 0 1.904.91 1.904 2.044 0 1.428-.952 3.43-2.688 3.43-1.302 0-1.988-.798-1.988-1.988Zm-1.19.014c0 1.75 1.148 3.024 3.052 3.024 2.534 0 4.004-2.212 4.004-4.578 0-1.932-1.078-2.996-3.01-2.996-2.534 0-4.046 2.184-4.046 4.55Zm9.229-.014c0-1.498.952-3.486 2.772-3.486 1.302 0 1.904.91 1.904 2.044 0 1.428-.952 3.43-2.688 3.43-1.302 0-1.988-.798-1.988-1.988Zm-1.19.014c0 1.75 1.148 3.024 3.052 3.024 2.534 0 4.004-2.212 4.004-4.578 0-1.932-1.078-2.996-3.01-2.996-2.534 0-4.046 2.184-4.046 4.55Zm7.731 2.856h1.19l.812-3.794c.154-.714.266-1.148.77-1.638.42-.476 1.12-.924 1.778-.924.644 0 1.008.35 1.008.952 0 .168-.098.714-.224 1.274l-.868 4.13h1.19l.798-3.738c.126-.616.28-1.204.672-1.624.406-.518 1.148-.994 1.82-.994.63 0 1.106.42 1.106.98 0 .21-.056.56-.112.784l-1.008 4.592h1.19l.91-4.34c.098-.406.21-1.022.21-1.442 0-1.176-.994-1.624-2.016-1.624-.966 0-1.918.532-2.478 1.302-.21-.938-.91-1.302-1.82-1.302-.994 0-1.904.518-2.52 1.274l-.028-.028.266-1.078h-1.106l-1.54 7.238Zm18.152-5.11c0-1.694-1.386-2.296-2.73-2.296s-2.688.742-2.688 2.086c0 1.092.952 1.582 1.918 1.96.952.392 1.904.672 1.904 1.372 0 .826-.882 1.106-1.652 1.106-.994 0-1.904-.322-1.848-1.4h-1.19c-.014 1.848 1.274 2.45 2.926 2.45 1.4 0 2.954-.63 2.954-2.24 0-1.134-.966-1.638-1.918-2.03-.952-.392-1.904-.658-1.904-1.33 0-.728.812-.924 1.54-.924.826 0 1.554.42 1.498 1.246h1.19Z" fill="#FCD043"/><path d="M72.876 59.48c0 .658-.644 1.638-2.212 1.638-.728 0-1.4-.28-1.4-1.064 0-.882.672-1.162 1.456-1.302.798-.14 1.694-.154 2.156-.49v1.218Zm1.932 1.568c-.154.056-.266.07-.364.07-.378 0-.378-.252-.378-.812v-3.724c0-1.694-1.414-1.988-2.716-1.988-1.61 0-2.996.63-3.066 2.422h1.19c.056-1.064.798-1.372 1.806-1.372.756 0 1.61.168 1.61 1.204 0 .896-1.12.812-2.436 1.064-1.232.238-2.45.588-2.45 2.226 0 1.442 1.078 2.03 2.394 2.03 1.008 0 1.89-.35 2.548-1.12 0 .784.392 1.12 1.008 1.12.378 0 .644-.07.854-.196v-.924Zm1.107.952h1.19v-4.088c0-1.302.7-2.268 2.142-2.268.91 0 1.47.574 1.47 1.456V62h1.19v-4.76c0-1.554-.587-2.646-2.492-2.646-1.036 0-1.848.42-2.352 1.316h-.028v-1.148h-1.12V62Zm14.248-9.996h-1.19v3.724h-.028c-.532-.854-1.596-1.134-2.338-1.134-2.212 0-3.304 1.722-3.304 3.766s1.106 3.808 3.332 3.808c.994 0 1.918-.35 2.31-1.148h.028V62h1.19v-9.996Zm-5.6 6.44c0-1.414.546-2.8 2.17-2.8 1.638 0 2.282 1.316 2.282 2.744 0 1.358-.616 2.73-2.212 2.73-1.54 0-2.24-1.316-2.24-2.674ZM57.126 72.23c0 .658-.644 1.638-2.212 1.638-.728 0-1.4-.28-1.4-1.064 0-.882.672-1.162 1.456-1.302.798-.14 1.694-.154 2.156-.49v1.218Zm1.932 1.568c-.154.056-.266.07-.364.07-.378 0-.378-.252-.378-.812v-3.724c0-1.694-1.414-1.988-2.716-1.988-1.61 0-2.996.63-3.066 2.422h1.19c.056-1.064.798-1.372 1.806-1.372.756 0 1.61.168 1.61 1.204 0 .896-1.12.812-2.436 1.064-1.232.238-2.45.588-2.45 2.226 0 1.442 1.078 2.03 2.394 2.03 1.008 0 1.89-.35 2.548-1.12 0 .784.392 1.12 1.008 1.12.378 0 .644-.07.854-.196v-.924Zm6.75-2.73c0 1.414-.547 2.8-2.17 2.8-1.639 0-2.282-1.316-2.282-2.744 0-1.358.615-2.73 2.212-2.73 1.54 0 2.24 1.316 2.24 2.674Zm-5.6 6.454h1.19v-3.738h.027c.533.854 1.597 1.134 2.339 1.134 2.211 0 3.303-1.722 3.303-3.766s-1.105-3.808-3.331-3.808c-.994 0-1.918.35-2.31 1.148h-.029v-.98h-1.19v10.01Zm12.736-5.292c0 .658-.644 1.638-2.212 1.638-.728 0-1.4-.28-1.4-1.064 0-.882.672-1.162 1.456-1.302.798-.14 1.694-.154 2.156-.49v1.218Zm1.932 1.568c-.154.056-.266.07-.364.07-.378 0-.378-.252-.378-.812v-3.724c0-1.694-1.414-1.988-2.716-1.988-1.61 0-2.996.63-3.066 2.422h1.19c.056-1.064.798-1.372 1.806-1.372.756 0 1.61.168 1.61 1.204 0 .896-1.12.812-2.436 1.064-1.232.238-2.45.588-2.45 2.226 0 1.442 1.078 2.03 2.394 2.03 1.008 0 1.89-.35 2.548-1.12 0 .784.392 1.12 1.008 1.12.378 0 .644-.07.854-.196v-.924Zm1.066.952h1.19v-3.22c0-1.834.7-2.926 2.618-2.926v-1.26c-1.288-.042-2.086.532-2.66 1.694h-.028v-1.526h-1.12v7.238Zm6.356-9.408h-1.19v2.17h-1.232v1.05h1.232v4.606c0 1.33.49 1.582 1.722 1.582h.91V73.7h-.546c-.742 0-.896-.098-.896-.644v-4.494h1.442v-1.05h-1.442v-2.17Zm2.764 9.408h1.19v-4.508c0-.546.518-1.848 1.932-1.848 1.064 0 1.358.672 1.358 1.61v4.746h1.19v-4.508c0-1.12.742-1.848 1.89-1.848 1.162 0 1.4.714 1.4 1.61v4.746h1.19v-5.306c0-1.498-.966-2.1-2.408-2.1-.924 0-1.778.462-2.268 1.232-.294-.882-1.106-1.232-1.988-1.232-.994 0-1.806.42-2.338 1.232h-.028v-1.064h-1.12v7.238Zm16.934-2.296c-.21.938-.896 1.414-1.876 1.414-1.582 0-2.296-1.12-2.254-2.38h5.418c.07-1.75-.714-4.144-3.276-4.144-1.974 0-3.402 1.596-3.402 3.766.07 2.212 1.162 3.808 3.472 3.808 1.624 0 2.772-.868 3.094-2.464h-1.176Zm-4.13-2.016c.084-1.106.826-2.044 2.072-2.044 1.176 0 2.03.91 2.086 2.044h-4.158Zm6.651 4.312h1.19v-4.088c0-1.302.7-2.268 2.142-2.268.91 0 1.47.574 1.47 1.456v4.9h1.19v-4.76c0-1.554-.588-2.646-2.492-2.646-1.036 0-1.848.42-2.352 1.316h-.028v-1.148h-1.12v7.238Zm9.431-9.408h-1.19v2.17h-1.232v1.05h1.232v4.606c0 1.33.49 1.582 1.722 1.582h.91V73.7h-.546c-.742 0-.896-.098-.896-.644v-4.494h1.442v-1.05h-1.442v-2.17Zm2.302 7.126c.07 1.792 1.442 2.45 3.066 2.45 1.47 0 3.08-.56 3.08-2.282 0-1.4-1.176-1.792-2.366-2.058-1.106-.266-2.366-.406-2.366-1.26 0-.728.826-.924 1.54-.924.784 0 1.596.294 1.68 1.218h1.19c-.098-1.764-1.372-2.268-2.968-2.268-1.26 0-2.702.602-2.702 2.058 0 1.386 1.19 1.778 2.366 2.044 1.19.266 2.366.42 2.366 1.344 0 .91-1.008 1.078-1.75 1.078-.98 0-1.904-.336-1.946-1.4h-1.19Z" fill="#FFFCF6"/></svg>