<svg width="24" height="24" fill="none" xmlns="http://www.w3.org/2000/svg"><path d="M4.275 11.06a1.09 1.09 0 0 1-.907-1.36c.16-.593.801-.91 1.368-.678l7.637 3.133-8.098-1.094Z" fill="#FCD043"/><path d="M13.466 4.057a1.09 1.09 0 0 1 1.362-.907c.591.16.91.801.677 1.368l-3.133 7.637 1.094-8.098Z" fill="#FCD043"/><path d="M7.45 5.638a1.09 1.09 0 0 1 .322-1.604 1.017 1.017 0 0 1 1.446.489l3.185 7.615-4.953-6.5ZM18.906 7.184a1.09 1.09 0 0 1 1.603.322c.307.53.078 1.21-.488 1.446l-7.615 3.184 6.5-4.952ZM20.47 13.25a1.09 1.09 0 0 1 .905 1.362c-.158.592-.8.91-1.367.677l-7.637-3.133 8.098 1.094ZM11.275 20.255a1.09 1.09 0 0 1-1.362.906 1.017 1.017 0 0 1-.677-1.368l3.133-7.637-1.094 8.099Z" fill="#FCD043"/><path d="M17.358 18.638a1.09 1.09 0 0 1-.321 1.603c-.531.307-1.21.078-1.447-.488l-3.184-7.615 4.952 6.5ZM5.905 17.088a1.09 1.09 0 0 1-1.604-.322 1.017 1.017 0 0 1 .488-1.446l7.616-3.185-6.5 4.953Z" fill="#FCD043"/></svg>