<svg width="82" height="80" fill="none" xmlns="http://www.w3.org/2000/svg"><path d="m23.462 3.971 2.097-.9c.965-.401 1.697-.101 2.096.767.4.9.1 1.669-.865 2.069l-1.464.634.865 1.97-.632.266-2.097-4.806Zm1.63 2.003 1.265-.534c.732-.3.899-.768.666-1.335-.233-.568-.699-.734-1.431-.434l-1.265.534.766 1.769Z" fill="#1B3B36"/><path d="m23.462 3.971 2.097-.9c.965-.401 1.697-.101 2.096.767.4.9.1 1.669-.865 2.069l-1.464.634.865 1.97-.632.266-2.097-4.806Zm1.63 2.003 1.265-.534c.732-.3.899-.768.666-1.335-.233-.568-.699-.734-1.431-.434l-1.265.534.766 1.769Z" fill="#000" fill-opacity=".2"/><path d="m33.08.7 2.43-.366c.964-.134 1.663.3 1.763 1.134.1.635-.1 1.169-.699 1.436.632.033.799.433.932.934.133.5.166 1.068.532 1.368l-.765.1c-.233-.166-.2-.767-.366-1.234-.133-.501-.333-.901-.998-.801l-1.664.267.332 2.202-.698.1-.8-5.14Zm2.462 2.07c.633-.1 1.165-.334 1.065-1.101-.066-.501-.399-.835-1.065-.735l-1.697.267.266 1.803 1.431-.234Z" fill="#1B3B36"/><path d="m33.08.7 2.43-.366c.964-.134 1.663.3 1.763 1.134.1.635-.1 1.169-.699 1.436.632.033.799.433.932.934.133.5.166 1.068.532 1.368l-.765.1c-.233-.166-.2-.767-.366-1.234-.133-.501-.333-.901-.998-.801l-1.664.267.332 2.202-.698.1-.8-5.14Zm2.462 2.07c.633-.1 1.165-.334 1.065-1.101-.066-.501-.399-.835-1.065-.735l-1.697.267.266 1.803 1.431-.234Z" fill="#000" fill-opacity=".2"/><path d="m43.462 0 3.594.367-.066.6-2.895-.3-.167 1.67 2.696.266-.067.601-2.695-.267-.2 1.802 2.928.267-.066.601-3.594-.4L43.462 0Z" fill="#1B3B36"/><path d="m43.462 0 3.594.367-.066.6-2.895-.3-.167 1.67 2.696.266-.067.601-2.695-.267-.2 1.802 2.928.267-.066.601-3.594-.4L43.462 0Z" fill="#000" fill-opacity=".2"/><path d="m53.28 1.802.898.367-.066 4.706 3.161-3.471.899.367-1.93 4.873-.666-.3 1.597-4.072-3.128 3.47-.566-.233.067-4.673-1.597 4.072-.6-.233 1.93-4.873Z" fill="#1B3B36"/><path d="m53.28 1.802.898.367-.066 4.706 3.161-3.471.899.367-1.93 4.873-.666-.3 1.597-4.072-3.128 3.47-.566-.233.067-4.673-1.597 4.072-.6-.233 1.93-4.873Z" fill="#000" fill-opacity=".2"/><path d="m63.728 7.075.566.4-3.028 4.273-.566-.4 3.028-4.273Z" fill="#1B3B36"/><path d="m63.728 7.075.566.4-3.028 4.273-.566-.4 3.028-4.273Z" fill="#000" fill-opacity=".2"/><path d="M69.586 16.954c-.965.901-1.996.801-2.861-.167-.9-1.001-.966-2.002.066-2.937l2.463-2.236.465.5-2.495 2.237c-.7.634-.7 1.368-.1 2.036.599.667 1.298.667 1.963.066l2.463-2.236.466.5-2.43 2.237Z" fill="#1B3B36"/><path d="M69.586 16.954c-.965.901-1.996.801-2.861-.167-.9-1.001-.966-2.002.066-2.937l2.463-2.236.465.5-2.495 2.237c-.7.634-.7 1.368-.1 2.036.599.667 1.298.667 1.963.066l2.463-2.236.466.5-2.43 2.237Z" fill="#000" fill-opacity=".2"/><path d="m75.843 20.226.433.868-3.228 3.404 4.659-.434.433.868-4.693 2.303-.3-.601 3.928-1.902-4.626.433-.266-.534 3.194-3.37-3.926 1.902-.3-.6 4.692-2.337Z" fill="#1B3B36"/><path d="m75.843 20.226.433.868-3.228 3.404 4.659-.434.433.868-4.693 2.303-.3-.601 3.928-1.902-4.626.433-.266-.534 3.194-3.37-3.926 1.902-.3-.6 4.692-2.337Z" fill="#000" fill-opacity=".2"/><path d="m81.001 38.482-.033 2.47c0 .967-.566 1.568-1.398 1.568-.632 0-1.131-.3-1.297-.934-.134.6-.566.734-1.099.767-.499.034-1.098 0-1.43.3v-.767c.2-.2.765-.067 1.297-.167.5-.067.932-.167.965-.868l.034-1.702-2.23-.033v-.701l5.191.067Zm-2.429 2.102c0 .668.133 1.202.898 1.235.5 0 .899-.267.899-.934l.033-1.736-1.83-.033v1.468Z" fill="#1B3B36"/><path d="m81.001 38.482-.033 2.47c0 .967-.566 1.568-1.398 1.568-.632 0-1.131-.3-1.297-.934-.134.6-.566.734-1.099.767-.499.034-1.098 0-1.43.3v-.767c.2-.2.765-.067 1.297-.167.5-.067.932-.167.965-.868l.034-1.702-2.23-.033v-.701l5.191.067Zm-2.429 2.102c0 .668.133 1.202.898 1.235.5 0 .899-.267.899-.934l.033-1.736-1.83-.033v1.468Z" fill="#000" fill-opacity=".2"/><path d="M79.602 51.064c-.466 1.602-1.963 2.07-3.328 1.669-1.364-.4-2.396-1.569-1.963-3.17.466-1.603 1.963-2.07 3.328-1.67 1.364.401 2.396 1.57 1.963 3.171Zm-4.725-1.335c-.333 1.235.566 2.036 1.564 2.336.998.3 2.23.067 2.562-1.168.333-1.235-.566-2.036-1.564-2.336-.998-.267-2.196-.067-2.562 1.168Z" fill="#1B3B36"/><path d="M79.602 51.064c-.466 1.602-1.963 2.07-3.328 1.669-1.364-.4-2.396-1.569-1.963-3.17.466-1.603 1.963-2.07 3.328-1.67 1.364.401 2.396 1.57 1.963 3.171Zm-4.725-1.335c-.333 1.235.566 2.036 1.564 2.336.998.3 2.23.067 2.562-1.168.333-1.235-.566-2.036-1.564-2.336-.998-.267-2.196-.067-2.562 1.168Z" fill="#000" fill-opacity=".2"/><path d="M75.111 61.243c-.865 1.402-2.43 1.435-3.66.7-1.199-.733-1.897-2.168-.999-3.57.865-1.402 2.43-1.435 3.66-.701 1.199.734 1.898 2.136.999 3.571Zm-4.16-2.57c-.665 1.102-.033 2.136.866 2.67.898.567 2.096.668 2.795-.4.665-1.102.033-2.136-.865-2.67-.899-.568-2.13-.701-2.796.4Z" fill="#1B3B36"/><path d="M75.111 61.243c-.865 1.402-2.43 1.435-3.66.7-1.199-.733-1.897-2.168-.999-3.57.865-1.402 2.43-1.435 3.66-.701 1.199.734 1.898 2.136.999 3.571Zm-4.16-2.57c-.665 1.102-.033 2.136.866 2.67.898.567 2.096.668 2.795-.4.665-1.102.033-2.136-.865-2.67-.899-.568-2.13-.701-2.796.4Z" fill="#000" fill-opacity=".2"/><path d="m69.585 68.252-.699.634-4.16-2.169 1.698 4.406-.7.634-3.493-3.905.499-.434 2.895 3.237-1.697-4.338.433-.4 4.126 2.168-2.895-3.237.499-.434 3.494 3.838Z" fill="#1B3B36"/><path d="m69.585 68.252-.699.634-4.16-2.169 1.698 4.406-.7.634-3.493-3.905.499-.434 2.895 3.237-1.697-4.338.433-.4 4.126 2.168-2.895-3.237.499-.434 3.494 3.838Z" fill="#000" fill-opacity=".2"/><path d="M56.708 75.328c.4.634.998.7 1.63.4.533-.267.966-.7.666-1.335-.266-.567-1.065-.3-1.93-.1-.832.2-1.697.3-2.163-.634-.5-1.001.3-1.869 1.165-2.303 1.065-.5 2.196-.434 2.762.701l-.6.3c-.398-.8-1.197-.8-1.93-.467-.565.267-1.097.768-.765 1.435.3.635 1.132.4 1.964.2.832-.2 1.697-.366 2.096.501.466.968-.166 1.803-1.031 2.203-.965.467-1.897.367-2.463-.634l.6-.267Z" fill="#1B3B36"/><path d="M56.708 75.328c.4.634.998.7 1.63.4.533-.267.966-.7.666-1.335-.266-.567-1.065-.3-1.93-.1-.832.2-1.697.3-2.163-.634-.5-1.001.3-1.869 1.165-2.303 1.065-.5 2.196-.434 2.762.701l-.6.3c-.398-.8-1.197-.8-1.93-.467-.565.267-1.097.768-.765 1.435.3.635 1.132.4 1.964.2.832-.2 1.697-.366 2.096.501.466.968-.166 1.803-1.031 2.203-.965.467-1.897.367-2.463-.634l.6-.267Z" fill="#000" fill-opacity=".2"/><path d="m49.718 74.693-.799.2-.2-.8.8-.2.2.8Z" fill="#1B3B36"/><path d="m49.718 74.693-.799.2-.2-.8.8-.2.2.8Z" fill="#000" fill-opacity=".2"/><path d="m36.408 80-1.863-.3c-.466-.067-1.065-.167-1.331-.4-.3-.268-.5-.668-.433-1.169.1-.567.433-.901.965-1.035-.599-.233-.898-.767-.765-1.401.133-.768.798-1.402 1.797-1.235l2.496.4-.866 5.14Zm-.3-2.336-1.363-.234c-.766-.133-1.132.1-1.232.634-.133.701.366.901.965 1.002l1.365.233.266-1.635Zm.367-2.37-1.73-.267c-.6-.1-1.032.2-1.132.768-.1.667.4.934.965 1.034l1.564.267.333-1.802Z" fill="#1B3B36"/><path d="m36.408 80-1.863-.3c-.466-.067-1.065-.167-1.331-.4-.3-.268-.5-.668-.433-1.169.1-.567.433-.901.965-1.035-.599-.233-.898-.767-.765-1.401.133-.768.798-1.402 1.797-1.235l2.496.4-.866 5.14Zm-.3-2.336-1.363-.234c-.766-.133-1.132.1-1.232.634-.133.701.366.901.965 1.002l1.365.233.266-1.635Zm.367-2.37-1.73-.267c-.6-.1-1.032.2-1.132.768-.1.667.4.934.965 1.034l1.564.267.333-1.802Z" fill="#000" fill-opacity=".2"/><path d="m24.992 76.863-.698-.3.266-5.607.699.3-.133 1.669 2.03.9 1.164-1.2.666.3-3.994 3.938Zm1.731-2.603-1.63-.734-.2 2.603 1.83-1.87Z" fill="#1B3B36"/><path d="m24.992 76.863-.698-.3.266-5.607.699.3-.133 1.669 2.03.9 1.164-1.2.666.3-3.994 3.938Zm1.731-2.603-1.63-.734-.2 2.603 1.83-1.87Z" fill="#000" fill-opacity=".2"/><path d="m17.374 72.557-.566-.467.533-5.04-2.662 3.305-.5-.4 3.295-4.073.599.468-.532 5.006 2.628-3.27.5.4-3.295 4.071Z" fill="#1B3B36"/><path d="m17.374 72.557-.566-.467.533-5.04-2.662 3.305-.5-.4 3.295-4.073.599.468-.532 5.006 2.628-3.27.5.4-3.295 4.071Z" fill="#000" fill-opacity=".2"/><path d="m9.651 65.081-.399-.567 2.096-1.535-3.66-.634-.532-.735 2.994.568 1.198-3.705.5.701-1.032 3.104 1.165.233 1.497-1.068.4.568-4.227 3.07Z" fill="#1B3B36"/><path d="m9.651 65.081-.399-.567 2.096-1.535-3.66-.634-.532-.735 2.994.568 1.198-3.705.5.701-1.032 3.104 1.165.233 1.497-1.068.4.568-4.227 3.07Z" fill="#000" fill-opacity=".2"/><path d="m2.032 49.462-.133-.701 2.196-.4-.499-2.704-2.196.4-.133-.7 5.124-.968.134.7-2.363.434.499 2.704 2.363-.434.133.7-5.125.969Z" fill="#1B3B36"/><path d="m2.032 49.462-.133-.701 2.196-.4-.499-2.704-2.196.4-.133-.7 5.124-.968.134.7-2.363.434.499 2.704 2.363-.434.133.7-5.125.969Z" fill="#000" fill-opacity=".2"/><path d="M1 36.479c.133-1.67 1.531-2.37 2.962-2.27 1.431.1 2.662 1.068 2.496 2.737-.133 1.669-1.53 2.37-2.962 2.27C2.1 39.115.867 38.146 1 36.478Zm4.892.433c.1-1.268-.932-1.902-1.996-2.002-1.065-.1-2.197.334-2.297 1.602-.1 1.268.932 1.902 1.997 2.002 1.032.134 2.163-.3 2.296-1.602Z" fill="#1B3B36"/><path d="M1 36.479c.133-1.67 1.531-2.37 2.962-2.27 1.431.1 2.662 1.068 2.496 2.737-.133 1.669-1.53 2.37-2.962 2.27C2.1 39.115.867 38.146 1 36.478Zm4.892.433c.1-1.268-.932-1.902-1.996-2.002-1.065-.1-2.197.334-2.297 1.602-.1 1.268.932 1.902 1.997 2.002 1.032.134 2.163-.3 2.296-1.602Z" fill="#000" fill-opacity=".2"/><path d="m3.796 26.934-.599 1.635-.566-.2 1.431-3.938.566.2-.599 1.635 4.36 1.602-.234.668-4.359-1.602Z" fill="#1B3B36"/><path d="m3.796 26.934-.599 1.635-.566-.2 1.431-3.938.566.2-.599 1.635 4.36 1.602-.234.668-4.359-1.602Z" fill="#000" fill-opacity=".2"/><path d="m6.823 19.157 1.996-3.003.5.333-1.631 2.437 1.364.934 1.498-2.27.499.334-1.498 2.27 1.498 1.001 1.63-2.436.5.334-2.03 3.037-4.326-2.97Z" fill="#1B3B36"/><path d="m6.823 19.157 1.996-3.003.5.333-1.631 2.437 1.364.934 1.498-2.27.499.334-1.498 2.27 1.498 1.001 1.63-2.436.5.334-2.03 3.037-4.326-2.97Z" fill="#000" fill-opacity=".2"/><path d="m12.915 11.447.5-.467 3.127 3.438 2.03-1.87.4.434-2.563 2.337-3.494-3.872Z" fill="#1B3B36"/><path d="m12.915 11.447.5-.467 3.127 3.438 2.03-1.87.4.434-2.563 2.337-3.494-3.872Z" fill="#000" fill-opacity=".2"/></svg>