<svg width="86" height="86" fill="none" xmlns="http://www.w3.org/2000/svg"><g clip-path="url('#clip0_28_1812')"><g opacity=".64" fill="#FFFCF6"><path d="m38.066 82.59-1.85-.74c-.843-.35-1.11-.986-.822-1.767.308-.802.966-1.09 1.809-.74l1.294.513.679-1.747.555.226-1.665 4.255Zm.246-2.26-1.11-.453c-.637-.267-1.027-.082-1.233.411-.205.493-.02.884.617 1.151l1.11.452.617-1.562ZM32.56 80.124l-1.83-1.131c-.74-.452-.925-1.13-.555-1.747.287-.453.74-.74 1.274-.576-.411-.37-.288-.74-.082-1.15.205-.412.493-.823.431-1.214l.576.37c.041.247-.288.617-.452 1.028-.165.411-.288.781.205 1.11l1.275.781 1.028-1.644.514.308-2.385 3.865Zm-.494-2.755c-.473-.308-.966-.432-1.316.123-.226.391-.205.781.267 1.09l1.295.802.823-1.357-1.07-.658ZM27.36 76.608l-2.343-2.097.35-.39 1.89 1.686.967-1.09-1.768-1.562.35-.39 1.767 1.603 1.049-1.172-1.912-1.706.35-.39 2.363 2.117-3.063 3.391ZM23.102 72.56l-.494-.659 2.159-3.474-3.906 1.193-.493-.658 3.618-2.796.35.473-3.022 2.323 3.884-1.172.33.411-2.159 3.433 3.022-2.323.35.473-3.64 2.775ZM18.91 66.475l-.288-.534 4.029-2.179.288.534-4.03 2.18ZM18.83 58.993c1.069-.411 1.89 0 2.26 1.069.412 1.11.145 1.952-1.006 2.364l-2.734 1.007-.206-.576 2.734-1.007c.76-.267 1.007-.884.72-1.624-.268-.72-.843-.966-1.583-.678l-2.734 1.007-.206-.576 2.755-.986ZM15.315 57.123l-.124-.823 3.577-2.014-4.009-.843-.123-.822 4.522-.699.083.576-3.742.575 3.968.843.061.514-3.535 1.973 3.74-.575.083.575-4.501.72ZM14.658 46.228l.308-2.117c.123-.864.658-1.316 1.377-1.213.535.082.966.39 1.028.945.185-.513.576-.575 1.028-.534.452.041.945.123 1.274-.082l-.102.678c-.227.144-.679-.02-1.152 0-.452 0-.842.062-.925.637l-.205 1.48 1.932.288-.082.617-4.481-.7ZM17 44.666c.082-.576 0-1.07-.658-1.151-.431-.062-.801.143-.883.678l-.227 1.5 1.583.227.185-1.254ZM16.32 38.148c.474-1.377 1.789-1.706 2.981-1.295 1.172.39 2.035 1.46 1.563 2.837-.473 1.377-1.789 1.706-2.981 1.295-1.192-.37-2.035-1.46-1.562-2.837Zm4.03 1.398c.349-1.048-.412-1.809-1.275-2.097-.863-.288-1.932-.164-2.281.884-.35 1.049.41 1.81 1.274 2.097.863.288 1.932.164 2.282-.884ZM19.158 31.943c.72-1.254 2.097-1.316 3.166-.7 1.069.618 1.706 1.83.966 3.105-.74 1.274-2.097 1.315-3.165.699-1.07-.658-1.707-1.87-.967-3.104Zm3.7 2.138c.555-.967-.04-1.85-.822-2.303-.802-.472-1.85-.534-2.425.412-.555.966.04 1.85.822 2.302.802.473 1.85.534 2.425-.411ZM21.976 27.851l.555-.637 3.803 1.5-1.87-3.638.554-.637 3.392 3.063-.39.431-2.837-2.549 1.87 3.598-.35.39-3.781-1.48 2.836 2.549-.39.432-3.392-3.022ZM30.157 21.971c-.452-.493-.966-.431-1.46-.061-.39.308-.72.76-.35 1.253.33.453.988.083 1.666-.226.678-.308 1.418-.555 1.953.185.575.782.061 1.665-.596 2.159-.823.616-1.81.74-2.488-.144l.473-.35c.452.617 1.192.494 1.727.083.452-.33.822-.823.41-1.357-.37-.493-1.027-.165-1.705.144-.678.308-1.398.575-1.891-.082-.576-.74-.144-1.583.514-2.076.74-.576 1.582-.638 2.199.143l-.452.33ZM34.017 22.549l.616-.329.329.617-.617.329-.328-.617ZM38.438 16.319l1.603-.452c.39-.103.905-.247 1.192-.165.33.082.658.33.782.781.143.473-.021.884-.391 1.172.575-.041.987.288 1.13.843.186.637-.123 1.397-.986 1.644l-2.117.596-1.213-4.42Zm1.665 3.72 1.48-.41c.514-.145.74-.535.617-1.029-.165-.575-.679-.596-1.172-.472l-1.336.39.41 1.521Zm-.555-1.994 1.171-.308c.679-.185.864-.493.74-.945-.164-.617-.616-.576-1.13-.432l-1.172.308.39 1.378ZM45.795 14.76l.678-.063 2.2 4.379-.679.061-.617-1.315-1.911.185-.39 1.418-.638.062 1.357-4.728Zm-.206 2.712 1.542-.144-.966-2.034-.576 2.178ZM50.586 14.532l.637.061 2.076 3.885.308-3.68.576.042-.37 4.563-.658-.04-2.076-3.845-.309 3.639-.575-.041.39-4.584ZM57.082 15.354l.576.164-.596 2.2 2.836-1.604.74.206-2.343 1.274 1.213 3.145-.74-.205-.987-2.673-.925.473-.432 1.542-.575-.165 1.233-4.357ZM66.045 18.683l.514.309-1.028 1.685 2.056 1.234 1.028-1.686.514.308-2.385 3.906-.514-.308 1.09-1.789-2.056-1.233-1.09 1.788-.513-.308 2.384-3.905ZM73.033 23.535c1.069.986.842 2.323 0 3.248-.843.925-2.138 1.274-3.228.308-1.09-.966-.842-2.323 0-3.248.843-.925 2.138-1.274 3.228-.308ZM70.155 26.7c.822.74 1.83.35 2.425-.328.597-.679.925-1.707.103-2.447-.822-.74-1.83-.35-2.425.33-.596.678-.925 1.705-.103 2.445ZM76.546 28.2l-.924-1.212.39-.308 2.24 2.898-.39.308-.925-1.212-3.206 2.466-.37-.493 3.185-2.446ZM79.508 31.57l1.5 2.776-.451.247-1.213-2.241-1.274.699 1.13 2.076-.452.247-1.13-2.077-1.378.761 1.233 2.261-.452.247L75.5 33.77l4.008-2.2ZM82.034 36.732l.205.575-3.823 1.357.802 2.282-.494.164-1.007-2.857 4.317-1.521Z"/></g><path d="M41.275 48.06a1.09 1.09 0 0 1-.907-1.36c.16-.593.801-.91 1.368-.678l7.637 3.133-8.098-1.094Z" fill="#FCD043"/><path d="M50.466 41.057a1.09 1.09 0 0 1 1.361-.907c.592.16.91.801.678 1.368l-3.133 7.637 1.094-8.098Z" fill="#FCD043"/><path d="M44.45 42.638a1.09 1.09 0 0 1 .322-1.604 1.017 1.017 0 0 1 1.447.489l3.184 7.615-4.953-6.5ZM55.906 44.184a1.09 1.09 0 0 1 1.603.322c.307.53.078 1.21-.488 1.446l-7.615 3.184 6.5-4.952ZM57.47 50.25a1.09 1.09 0 0 1 .905 1.362c-.158.592-.8.91-1.367.677l-7.637-3.133 8.098 1.094ZM48.275 57.255a1.09 1.09 0 0 1-1.361.906 1.017 1.017 0 0 1-.678-1.368l3.133-7.637-1.094 8.099Z" fill="#FCD043"/><path d="M54.358 55.638a1.09 1.09 0 0 1-.321 1.604c-.531.306-1.21.077-1.447-.489l-3.184-7.615 4.952 6.5ZM42.905 54.088a1.09 1.09 0 0 1-1.604-.322 1.017 1.017 0 0 1 .488-1.446l7.616-3.185-6.5 4.953Z" fill="#FCD043"/></g><defs><clipPath id="clip0_28_1812"><path fill="#fff" transform="rotate(-135 35.41 35.17)" d="M0 0h50.32v70H0z"/></clipPath></defs></svg>