<svg width="117" height="98" fill="none" xmlns="http://www.w3.org/2000/svg"><g opacity=".64" fill="#FFFCF6"><path d="m52.708 95.14-2.22-.888c-1.011-.42-1.332-1.184-.987-2.122.37-.962 1.16-1.307 2.171-.888l1.554.617.814-2.097.666.272-1.998 5.106Zm.296-2.714-1.332-.542c-.765-.321-1.233-.099-1.48.493-.247.592-.025 1.06.74 1.381l1.332.543.74-1.875ZM46.098 92.18l-2.196-1.357c-.888-.543-1.11-1.357-.666-2.097.346-.542.888-.888 1.53-.69-.494-.444-.346-.888-.099-1.382.247-.493.592-.986.518-1.455l.69.444c.05.296-.345.74-.542 1.233-.197.494-.345.938.247 1.332l1.529.938 1.233-1.974.617.37-2.861 4.638Zm-.592-3.306c-.568-.37-1.16-.518-1.58.148-.27.469-.246.938.322 1.308l1.554.962.986-1.628-1.282-.79ZM39.857 87.961l-2.813-2.516.42-.469L39.734 87l1.159-1.307-2.122-1.875.42-.469 2.12 1.924 1.259-1.406-2.294-2.047.42-.469 2.836 2.541-3.675 4.07ZM34.75 83.102l-.591-.79 2.59-4.168-4.687 1.43-.592-.789 4.341-3.354.42.567-3.626 2.787 4.662-1.406.394.494-2.59 4.12 3.626-2.788.42.567-4.366 3.33ZM29.718 75.801l-.345-.641 4.835-2.615.345.642-4.835 2.614ZM29.619 66.822c1.282-.493 2.27 0 2.713 1.283.494 1.332.173 2.343-1.209 2.836l-3.28 1.21-.247-.692 3.28-1.208c.913-.321 1.21-1.061.864-1.949-.32-.863-1.011-1.16-1.9-.814l-3.28 1.209-.246-.691 3.305-1.184ZM25.401 64.577l-.148-.987 4.292-2.418-4.81-1.01-.148-.987 5.427-.84.099.691-4.49.691 4.761 1.011.074.617-4.243 2.368 4.49-.69.098.69-5.402.864ZM24.613 51.503l.37-2.54c.148-1.037.789-1.58 1.652-1.456.642.099 1.16.469 1.234 1.135.222-.617.69-.69 1.233-.642.543.05 1.135.148 1.53-.098l-.124.814c-.271.172-.814-.025-1.381 0-.543 0-1.012.074-1.11.764l-.247 1.777 2.319.345-.099.74-5.377-.839Zm2.812-1.874c.098-.691 0-1.283-.79-1.382-.518-.074-.962.173-1.06.814l-.272 1.8 1.9.272.222-1.505ZM26.61 41.809c.567-1.653 2.146-2.048 3.577-1.554 1.406.468 2.442 1.75 1.875 3.404-.568 1.652-2.146 2.047-3.577 1.554-1.43-.444-2.442-1.752-1.875-3.404Zm4.835 1.677c.42-1.258-.493-2.17-1.53-2.516-1.035-.346-2.318-.197-2.738 1.06-.419 1.259.494 2.171 1.53 2.517 1.036.345 2.319.197 2.738-1.061ZM30.014 34.36c.863-1.504 2.516-1.578 3.799-.838 1.282.74 2.047 2.195 1.16 3.724-.889 1.53-2.517 1.579-3.8.839-1.282-.79-2.047-2.245-1.159-3.725Zm4.44 2.566c.666-1.16-.05-2.22-.987-2.763-.962-.567-2.22-.641-2.91.493-.666 1.16.049 2.22.986 2.763.962.567 2.22.641 2.911-.493ZM33.394 29.45l.666-.764 4.563 1.8-2.244-4.365.666-.765 4.07 3.675-.469.518-3.404-3.058 2.245 4.316-.42.47L34.53 29.5l3.404 3.059-.469.518-4.07-3.626ZM43.212 22.396c-.543-.592-1.16-.518-1.752-.074-.468.37-.863.913-.419 1.505.395.542 1.184.098 1.998-.272.814-.37 1.702-.666 2.344.222.69.938.074 1.998-.716 2.59-.986.74-2.17.888-2.985-.172l.568-.42c.542.74 1.43.592 2.072.1.543-.396.987-.988.493-1.629-.444-.592-1.233-.197-2.047.173-.814.37-1.678.69-2.27-.099-.69-.888-.172-1.9.617-2.491.888-.691 1.9-.765 2.64.172l-.543.395ZM47.848 23.087l.74-.394.395.74-.74.394-.395-.74ZM53.152 15.613l1.924-.543c.47-.123 1.086-.296 1.431-.197.395.098.79.394.937.937.173.567-.024 1.06-.468 1.406.69-.05 1.184.345 1.357 1.011.221.765-.148 1.678-1.185 1.974l-2.54.715-1.456-5.303Zm1.998 4.464 1.776-.493c.617-.173.889-.641.74-1.233-.197-.691-.814-.716-1.406-.568l-1.603.469.493 1.825Zm-.666-2.392 1.406-.37c.814-.222 1.036-.592.888-1.135-.197-.74-.74-.69-1.356-.518l-1.406.37.468 1.653ZM61.983 13.739l.814-.074 2.64 5.254-.815.074-.74-1.579-2.294.222-.468 1.702-.765.074 1.628-5.673Zm-.247 3.256 1.85-.173-1.16-2.442-.69 2.615ZM67.73 13.465l.765.074 2.492 4.662.37-4.415.69.05-.444 5.475-.789-.049-2.491-4.613-.37 4.367-.691-.05.469-5.5ZM75.525 14.453l.691.197-.715 2.64 3.404-1.924.888.246-2.812 1.53 1.455 3.774-.888-.247-1.184-3.207-1.11.568-.518 1.85-.69-.197 1.48-5.23ZM86.28 18.449l.617.37-1.233 2.023 2.466 1.48 1.234-2.023.617.37-2.862 4.687-.617-.37 1.308-2.146-2.467-1.48-1.307 2.146-.617-.37 2.862-4.687ZM94.667 24.27c1.283 1.184 1.011 2.788 0 3.898-1.011 1.11-2.566 1.53-3.873.37-1.307-1.16-1.011-2.788 0-3.898 1.011-1.11 2.566-1.529 3.873-.37Zm-3.454 3.8c.987.887 2.196.418 2.911-.396.716-.814 1.11-2.047.124-2.935-.987-.888-2.196-.42-2.911.395-.716.814-1.11 2.047-.124 2.935ZM98.885 29.87l-1.11-1.456.468-.37 2.689 3.479-.469.37-1.11-1.456-3.848 2.96-.444-.592 3.824-2.935ZM102.438 33.915l1.8 3.33-.542.296-1.456-2.689-1.529.839 1.357 2.491-.543.296-1.357-2.491-1.652.912 1.48 2.714-.543.296-1.825-3.355 4.81-2.64ZM105.471 40.107l.247.69-4.589 1.629.962 2.738-.592.197-1.208-3.429 5.18-1.825Z"/></g></svg>